<svg width="28" height="28" viewBox="0 0 28 28" fill="none" xmlns="http://www.w3.org/2000/svg">
<g clip-path="url(#clip0_2383_431)">
<path d="M24.7007 28L16.0825 19.3818C14.4632 20.4015 12.5545 21 10.5 21C4.7005 21 0 16.2995 0 10.5C0 4.7005 4.7005 0 10.5 0C16.2995 0 21 4.7005 21 10.5C21 12.5545 20.4003 14.4643 19.3818 16.0825L28 24.7007L24.7007 28ZM10.5 18.6667C15.0022 18.6667 18.6667 15.0033 18.6667 10.5C18.6667 5.99667 15.0022 2.33333 10.5 2.33333C5.99783 2.33333 2.33333 5.99667 2.33333 10.5C2.33333 15.0033 5.99783 18.6667 10.5 18.6667Z" fill="#4C839B"/>
</g>
<defs>
<clipPath id="clip0_2383_431">
<rect width="28" height="28" fill="white"/>
</clipPath>
</defs>
</svg>
