<svg width="124" height="24" viewBox="0 0 124 24" fill="none" xmlns="http://www.w3.org/2000/svg">
<path d="M23.5082 15L13.2857 24H14.206L24.4286 15H23.5082Z" fill="white"/>
<path d="M25.427 15L15.2143 24H22.573L32.7857 15H25.427Z" fill="white"/>
<path d="M2.14285 15L12.3654 24H13.2857L3.06314 15H2.14285Z" fill="white"/>
<path d="M0 15L10.2258 24H11.1429L0.917005 15H0Z" fill="white"/>
<path d="M14.2351 7.77131L12.3364 6.67494C12.2991 6.65384 12.2571 6.64282 12.2143 6.64282C12.1715 6.64282 12.1295 6.65384 12.0922 6.67494L10.1935 7.77131C10.1562 7.79348 10.1254 7.82505 10.1042 7.86267C10.0827 7.90043 10.0714 7.94289 10.0714 7.98628V10.8992C10.0714 10.9314 10.0779 10.9634 10.0903 10.9932C10.1028 11.0231 10.1211 11.0501 10.1441 11.0727C10.1673 11.0954 10.1946 11.1132 10.2246 11.1253C10.2546 11.1373 10.2868 11.1433 10.3191 11.1428H14.1095C14.1418 11.1433 14.174 11.1373 14.204 11.1253C14.234 11.1132 14.2613 11.0954 14.2843 11.0727C14.3075 11.0501 14.3258 11.0231 14.3382 10.9932C14.3507 10.9634 14.3572 10.9314 14.3572 10.8992V7.98628C14.3572 7.94289 14.3458 7.90043 14.3244 7.86267C14.303 7.82505 14.2724 7.79348 14.2351 7.77131Z" fill="white"/>
<path d="M0 11.1429L11.1926 0H12.2143L1.02171 11.1429H0Z" fill="white"/>
<path d="M27.4286 11.1429L16.2577 0H12.2143L23.3851 11.1429H27.4286Z" fill="white"/>
<path d="M32.7857 11.1429L21.7017 0H18L29.084 11.1429H32.7857Z" fill="white"/>
<path d="M49.251 2.14282V5.54792H50.9286V2.14282H49.251ZM41.3301 4.38469V8.95302H42.944V5.88631H57.3842V8.95302H59.0618V4.38469H41.3301ZM48.4016 6.83805C46.9575 9.94705 44.6641 14.2616 43.1139 16.7995L44.749 17.2437C46.2568 14.6846 48.4865 10.4123 50.0579 7.1976L48.4016 6.83805ZM54.029 11.216C52.6487 17.0956 48.4228 19.3164 41.2239 20.2046C41.5212 20.5642 42.0097 21.2621 42.1795 21.6428C49.5058 20.4796 54.0502 18.0262 55.7915 11.4698L54.029 11.216ZM40.7143 10.2643V11.7659H59.5714V10.2643H40.7143ZM44.3456 16.0593C48.9112 17.3706 54.5386 19.7605 57.3629 21.6428L58.5521 20.3315C55.5792 18.4492 49.888 16.1651 45.4286 14.9384L44.3456 16.0593Z" fill="white"/>
<path d="M70.6327 2.14282V4.98664H72.2754V2.14282H70.6327ZM62.6753 4.04583V8.30086H64.2326V5.52119H78.7822V8.30086H80.4036V4.04583H62.6753ZM65.406 7.6594V9.07062H77.4169V7.6594H65.406ZM68.2007 10.8667C72.3394 14.0313 72.4248 18.8636 70.9101 19.9541C70.4834 20.3176 70.0141 20.3604 69.4381 20.3604C68.9474 20.3604 68.222 20.339 67.4327 20.2535C67.71 20.7025 67.8594 21.3653 67.902 21.793C68.5634 21.8357 69.246 21.8571 69.7581 21.8571C70.7181 21.8571 71.3154 21.7074 72.0408 21.1301C74.2381 19.5906 74.1315 13.625 69.3954 10.1183L68.2007 10.8667ZM71.4008 7.98013C69.4594 9.79761 65.79 11.2516 62.5259 12.0427C62.8033 12.3421 63.2299 13.0049 63.4006 13.3043C66.7287 12.3421 70.5261 10.6957 72.7235 8.55745L71.4008 7.98013ZM69.8861 12.0641C68.3074 13.3684 65.086 14.8865 62.6753 15.5494C62.9953 15.8701 63.3366 16.4261 63.5286 16.7896C65.982 15.9129 69.182 14.2451 70.9527 12.7911L69.8861 12.0641ZM71.4648 14.2665C69.4594 16.3405 65.3206 18.5643 61.9286 19.4623C62.2272 19.8258 62.5899 20.4031 62.7819 20.8094C66.1953 19.6761 70.3554 17.3241 72.5741 15.079L71.4648 14.2665ZM73.4275 8.21534L72.1048 8.4933C73.3848 13.8602 75.9022 18.2008 80.1049 20.1252C80.3609 19.6761 80.8516 19.0561 81.2143 18.7353C77.1609 17.1103 74.6008 13.0263 73.4275 8.21534ZM78.9102 9.79761C77.6942 10.8881 75.6248 12.3421 74.1741 13.1974L75.1768 14.1809C76.6915 13.3684 78.6969 12.0427 80.1476 10.8667L78.9102 9.79761Z" fill="white"/>
<path d="M83.3571 3.21436V4.76601H102V3.21436H83.3571ZM86.9193 13.3107V14.7774H98.8218V13.3107H86.9193ZM86.962 18.7522V20.2613H98.6724V18.7522H86.962ZM91.6974 3.767C91.5481 5.19112 91.1641 7.23166 90.8228 8.50699L92.316 8.91085C92.7212 7.67802 93.1692 5.78628 93.5958 4.17086L91.6974 3.767ZM85.7888 7.93309V21.6429H87.4099V9.44224H98.1818V21.6429H99.867V7.93309H85.7888Z" fill="white"/>
<path d="M107.842 3.90397V21.6216H109.395V3.90397H107.842ZM104.248 8.1265V9.63303H112.542V8.1265H104.248ZM107.927 8.69941C107.161 11.3305 105.46 14.6406 103.929 16.3381C104.205 16.6989 104.588 17.3566 104.737 17.8022C106.374 15.8289 108.076 12.1156 108.927 9.12378L107.927 8.69941ZM111.245 2.43988C109.629 3.16132 106.842 3.77666 104.439 4.1586C104.609 4.51932 104.822 5.04979 104.907 5.4105C107.332 5.071 110.267 4.4981 112.223 3.73423L111.245 2.43988ZM109.309 9.90887L108.565 10.5667C109.203 11.3942 110.862 13.9192 111.373 14.9377L112.372 13.6858C111.904 13.0492 109.862 10.4818 109.309 9.90887ZM119.54 2.14282V21.6428H121.114V2.14282H119.54ZM112.287 15.9562L112.521 17.4627L123.857 15.6167L123.602 14.1314L112.287 15.9562ZM114.01 4.56176C115.265 5.4105 116.753 6.68363 117.434 7.57481L118.54 6.5351C117.817 5.64391 116.307 4.43444 115.031 3.62813L114.01 4.56176ZM113.159 10.0786C114.542 10.9486 116.158 12.2854 116.945 13.219L118.008 12.1581C117.221 11.2457 115.541 9.97253 114.159 9.145L113.159 10.0786Z" fill="white"/>
</svg>
