<svg width="20" height="20" viewBox="0 0 20 20" fill="none" xmlns="http://www.w3.org/2000/svg">
<path d="M9.25097 0.142822V3.54792H10.9286V0.142822H9.25097ZM1.33013 2.38469V6.95302H2.94402V3.88631H17.3842V6.95302H19.0618V2.38469H1.33013ZM8.40155 4.83805C6.95754 7.94705 4.6641 12.2616 3.11391 14.7995L4.74904 15.2437C6.25677 12.6846 8.4865 8.41235 10.0579 5.1976L8.40155 4.83805ZM14.029 9.21603C12.6487 15.0956 8.42279 17.3164 1.22395 18.2046C1.52124 18.5642 2.00966 19.2621 2.17955 19.6428C9.5058 18.4796 14.0502 16.0262 15.7915 9.46983L14.029 9.21603ZM0.714294 8.2643V9.76592H19.5714V8.2643H0.714294ZM4.34557 14.0593C8.91121 15.3706 14.5386 17.7605 17.3629 19.6428L18.5521 18.3315C15.5792 16.4492 9.88804 14.1651 5.42858 12.9384L4.34557 14.0593Z" fill="#4C839B"/>
</svg>
