<svg width="21" height="20" viewBox="0 0 21 20" fill="none" xmlns="http://www.w3.org/2000/svg">
<path d="M4.84196 1.90397V19.6216H6.39456V1.90397H4.84196ZM1.24758 6.1265V7.63303H9.54229V6.1265H1.24758ZM4.92703 6.69941C4.16136 9.33053 2.45989 12.6406 0.928558 14.3381C1.20505 14.6989 1.58788 15.3566 1.73676 15.8022C3.37444 13.8289 5.07592 10.1156 5.92666 7.12378L4.92703 6.69941ZM8.24492 0.439884C6.62851 1.16132 3.84233 1.77666 1.439 2.1586C1.60914 2.51932 1.82183 3.04979 1.90691 3.4105C4.33152 3.071 7.26657 2.4981 9.22327 1.73423L8.24492 0.439884ZM6.30948 7.90887L5.56509 8.56665C6.20314 9.39418 7.86208 11.9192 8.37253 12.9377L9.37215 11.6858C8.90424 11.0492 6.86246 8.48178 6.30948 7.90887ZM16.5396 0.142822V19.6428H18.1135V0.142822H16.5396ZM9.28708 13.9562L9.52102 15.4627L20.8571 13.6167L20.6019 12.1314L9.28708 13.9562ZM11.0098 2.56176C12.2647 3.4105 13.7535 4.68363 14.434 5.57481L15.54 4.5351C14.8169 3.64391 13.3068 2.43444 12.0307 1.62813L11.0098 2.56176ZM10.1591 8.07862C11.5415 8.94859 13.1579 10.2854 13.9449 11.219L15.0083 10.1581C14.2214 9.24565 12.5412 7.97253 11.1587 7.145L10.1591 8.07862Z" fill="#4C839B"/>
</svg>
