<svg width="30" height="26" viewBox="0 0 30 26" fill="none" xmlns="http://www.w3.org/2000/svg">
<path fill-rule="evenodd" clip-rule="evenodd" d="M16.875 24.25C16.53 24.25 16.25 23.97 16.25 23.625C16.25 23.28 16.53 23 16.875 23C17.22 23 17.5 23.28 17.5 23.625C17.5 23.97 17.22 24.25 16.875 24.25ZM16.875 21.75C15.84 21.75 15 22.59 15 23.625C15 24.66 15.84 25.5 16.875 25.5C17.91 25.5 18.75 24.66 18.75 23.625C18.75 22.59 17.91 21.75 16.875 21.75ZM9.375 24.25C9.03 24.25 8.75 23.97 8.75 23.625C8.75 23.28 9.03 23 9.375 23C9.72 23 10 23.28 10 23.625C10 23.97 9.72 24.25 9.375 24.25ZM9.375 21.75C8.34 21.75 7.5 22.59 7.5 23.625C7.5 24.66 8.34 25.5 9.375 25.5C10.41 25.5 11.25 24.66 11.25 23.625C11.25 22.59 10.41 21.75 9.375 21.75ZM30 1.75H26.295L21.7425 20.5H5.09125L0 4.24625H24.4025L25.3125 0.5H30V1.75ZM1.77375 5.49625L6.015 19.25H20.7575L24.1 5.49625H1.77375Z" fill="#4C839B"/>
</svg>
