<svg width="5" height="6" viewBox="0 0 5 6" fill="none" xmlns="http://www.w3.org/2000/svg">
<path d="M4.23507 1.77131L2.33638 0.674935C2.2991 0.653841 2.2571 0.642822 2.2143 0.642822C2.1715 0.642822 2.1295 0.653841 2.09221 0.674935L0.193525 1.77131C0.156241 1.79348 0.125418 1.82505 0.104151 1.86267C0.082749 1.90043 0.0714417 1.94289 0.0714417 1.98628V4.89919C0.0714417 4.93144 0.0779024 4.96342 0.0902858 4.99325C0.102804 5.02307 0.121109 5.05008 0.144126 5.07265C0.167278 5.09536 0.194602 5.11323 0.224618 5.12532C0.254634 5.13728 0.286804 5.14333 0.319109 5.14279H4.10949C4.14179 5.14333 4.17396 5.13728 4.20398 5.12532C4.23399 5.11323 4.26132 5.09536 4.28434 5.07265C4.30749 5.05008 4.32579 5.02307 4.33818 4.99325C4.35069 4.96342 4.35716 4.93144 4.35716 4.89919V1.98628C4.35716 1.94289 4.34585 1.90043 4.32445 1.86267C4.30305 1.82505 4.27236 1.79348 4.23507 1.77131Z" fill="#4C839B"/>
</svg>
