<svg width="21" height="20" viewBox="0 0 21 20" fill="none" xmlns="http://www.w3.org/2000/svg">
<path d="M9.63275 0.142822V2.98664H11.2754V0.142822H9.63275ZM1.67526 2.04583V6.30086H3.23262V3.52119H17.7822V6.30086H19.4036V2.04583H1.67526ZM4.40597 5.6594V7.07062H16.4169V5.6594H4.40597ZM7.2007 8.86671C11.3394 12.0313 11.4248 16.8636 9.91008 17.9541C9.48341 18.3176 9.01407 18.3604 8.43806 18.3604C7.94738 18.3604 7.22203 18.339 6.43268 18.2535C6.71002 18.7025 6.85936 19.3653 6.90202 19.793C7.56337 19.8357 8.24605 19.8571 8.75806 19.8571C9.71808 19.8571 10.3154 19.7074 11.0408 19.1301C13.2381 17.5906 13.1315 11.625 8.39539 8.11834L7.2007 8.86671ZM10.4008 5.98013C8.45939 7.79761 4.78998 9.25159 1.52592 10.0427C1.80325 10.3421 2.22993 11.0049 2.4006 11.3043C5.72867 10.3421 9.52608 8.69566 11.7235 6.55745L10.4008 5.98013ZM8.88606 10.0641C7.30736 11.3684 4.08597 12.8865 1.67526 13.5494C1.99526 13.8701 2.3366 14.4261 2.52861 14.7896C4.98199 13.9129 8.18205 12.2451 9.95275 10.7911L8.88606 10.0641ZM10.4648 12.2665C8.45939 14.3405 4.32064 16.5643 0.928574 17.4623C1.22725 17.8258 1.58992 18.4031 1.78192 18.8094C5.19532 17.6761 9.35541 15.3241 11.5741 13.079L10.4648 12.2665ZM12.4275 6.21534L11.1048 6.4933C12.3848 11.8602 14.9022 16.2008 19.1049 18.1252C19.3609 17.6761 19.8516 17.0561 20.2143 16.7353C16.1609 15.1103 13.6008 11.0263 12.4275 6.21534ZM17.9102 7.79761C16.6942 8.8881 14.6248 10.3421 13.1741 11.1974L14.1768 12.1809C15.6915 11.3684 17.6969 10.0427 19.1476 8.86671L17.9102 7.79761Z" fill="#4C839B"/>
</svg>
